<?xml version="1.0" encoding="utf-8"?>
<!-- Generator: Adobe Illustrator 16.0.0, SVG Export Plug-In . SVG Version: 6.00 Build 0)  -->
<!DOCTYPE svg PUBLIC "-//W3C//DTD SVG 1.1//EN" "http://www.w3.org/Graphics/SVG/1.1/DTD/svg11.dtd">
<svg version="1.1" id="Capa_1" xmlns="http://www.w3.org/2000/svg" xmlns:xlink="http://www.w3.org/1999/xlink" x="0px" y="0px"
	 width="1243.625px" height="715.868px" viewBox="-109.813 153.712 1243.625 715.868"
	 enable-background="new -109.813 153.712 1243.625 715.868" xml:space="preserve">
<path fill="#EDBC64" d="M1133.81,512.13c0,67.61-28.829,130.97-82.979,185.12c-27.71,27.71-62.04,53-102.54,75.23
	C834.24,835.1,679.3,869.58,512,869.58c-167.29,0-322.24-34.48-436.29-97.1C-43.93,706.81-109.81,614.34-109.81,512.13
	c0-102.27,65.88-194.9,185.5-260.83c114.17-62.93,269.12-97.59,436.31-97.59c167.18,0,322.14,34.66,436.31,97.59
	C1067.93,317.23,1133.81,409.86,1133.81,512.13z"/>
<g>
	<path fill="#FFFFFF" d="M948.31,251.3C834.14,188.37,679.18,153.71,512,153.71c-167.19,0-322.14,34.66-436.31,97.59
		c-119.62,65.93-185.5,158.56-185.5,260.83c0,102.21,65.88,194.68,185.52,260.351c114.05,62.619,269,97.1,436.29,97.1
		c167.3,0,322.24-34.48,436.29-97.1c40.5-22.23,74.83-47.521,102.54-75.23c54.15-54.15,82.979-117.51,82.979-185.12
		C1133.81,409.86,1067.93,317.23,948.31,251.3z M933.82,746.13c-109.69,60.22-259.5,93.39-421.82,93.39
		c-162.32,0-312.13-33.17-421.82-93.39C36.13,716.46-5.98,681.48-35,642.17c-29.69-40.229-44.75-83.979-44.75-130.04
		c0-46.08,15.06-89.89,44.76-130.21c8.67-11.77,18.51-23.16,29.48-34.13c25.77-25.77,57.81-49.27,95.71-70.16
		c109.81-60.52,259.61-93.85,421.8-93.85c162.2,0,312,33.33,421.81,93.85c54.03,29.78,96.15,64.87,125.181,104.29
		c29.7,40.32,44.76,84.13,44.76,130.21c0,46.061-15.06,89.811-44.75,130.04C1029.98,681.48,987.87,716.46,933.82,746.13z"/>
	<path fill="#FFFFFF" d="M524.23,264.15c-2.821-3.947-7.375-6.29-12.228-6.289c-4.852-0.001-9.408,2.344-12.228,6.289
		c-12.838,17.958-24.046,40.915-33.31,68.231c-2.666,7.861,1.545,16.398,9.406,19.064c7.861,2.666,16.396-1.547,19.064-9.407
		c5.127-15.116,10.838-28.636,17.072-40.429c26.281,49.646,42.115,127.435,42.113,210.518c0,28.396-1.813,56.341-5.391,83.065
		c-1.103,8.229,4.676,15.792,12.905,16.894c4.832,0.647,9.434-1.077,12.632-4.276c2.249-2.249,3.807-5.229,4.261-8.627
		c3.754-28.041,5.657-57.329,5.657-87.054C584.185,409.366,561.772,316.667,524.23,264.15z"/>
	<path fill="#FFFFFF" d="M538.476,649.854c-6.966,28.193-15.982,52.908-26.483,72.781c-26.279-49.646-42.109-127.43-42.112-210.51
		c0-39.458,3.439-77.44,10.221-112.893c1.561-8.154-3.786-16.027-11.939-17.588c-8.153-1.561-16.029,3.784-17.587,11.938
		c-7.136,37.309-10.755,77.191-10.758,118.54c0.001,102.759,22.414,195.46,59.956,247.977c2.821,3.947,7.375,6.289,12.228,6.289
		c4.02,0,7.835-1.607,10.63-4.402c0.579-0.579,1.116-1.21,1.599-1.888c17.969-25.138,32.988-60.767,43.43-103.037
		c1.992-8.06-2.928-16.208-10.988-18.198C548.616,636.877,540.469,641.793,538.476,649.854z"/>
	<path fill="#FFFFFF" d="M774.739,351.527c-5.783,6.989-11.186,15.218-16.06,24.46c-3.872,7.345-1.059,16.436,6.285,20.31
		c7.344,3.875,16.436,1.05,20.309-6.284c0.353-0.67,0.709-1.334,1.068-1.99c16.725,30.427,26.689,75.741,26.69,124.102
		c0,48.38-9.973,93.71-26.709,124.138c-16.737-30.428-26.71-75.758-26.71-124.137c0-26.206,2.973-52.264,8.599-75.359
		c1.965-8.068-2.983-16.199-11.048-18.164c-8.065-1.964-16.199,2.98-18.164,11.049c-6.271,25.752-9.451,53.501-9.45,82.472
		c-0.001,66.349,16.892,126.387,45.189,160.597c2.857,3.453,7.104,5.451,11.585,5.451c4.006,0,7.825-1.598,10.629-4.401
		c0.334-0.334,0.653-0.684,0.956-1.049c28.297-34.21,45.19-94.247,45.19-160.598c0-66.349-16.894-126.388-45.19-160.597
		c-2.857-3.453-7.103-5.451-11.583-5.453C781.846,346.072,777.593,348.081,774.739,351.527z"/>
	<path fill="#FFFFFF" d="M249.262,351.529c-2.857-3.453-7.103-5.451-11.584-5.451c-4.481,0-8.72,2.005-11.583,5.45
		c-9.137,11.047-17.187,24.956-23.928,41.343c-3.158,7.679,0.506,16.461,8.184,19.62c7.676,3.159,16.461-0.509,19.62-8.184
		c2.412-5.861,4.991-11.301,7.723-16.288c16.728,30.427,26.695,75.744,26.695,124.109c0,48.379-9.973,93.71-26.709,124.137
		c-16.738-30.429-26.709-75.758-26.709-124.138c0-19.753,1.631-39.063,4.848-57.394c1.436-8.176-4.03-15.97-12.208-17.404
		c-8.178-1.434-15.967,4.027-17.404,12.208c-3.519,20.042-5.302,41.099-5.302,62.59c0,66.35,16.892,126.386,45.191,160.597
		c2.856,3.452,7.103,5.451,11.584,5.451c4.005,0,7.825-1.598,10.629-4.402c0.333-0.333,0.651-0.684,0.955-1.049
		c28.298-34.211,45.192-94.248,45.19-160.598C294.453,445.776,277.56,385.738,249.262,351.529z"/>
	<path fill="#FFFFFF" d="M122.331,333.787c41.639-22.772,90.534-41.525,145.328-55.737c2.687-0.697,5.015-2.08,6.846-3.911
		c3.642-3.642,5.317-9.066,3.931-14.415c-2.085-8.038-10.289-12.861-18.326-10.777c-57.188,14.833-108.398,34.503-152.207,58.461
		c-7.282,3.982-9.959,13.117-5.977,20.402C105.913,335.097,115.047,337.771,122.331,333.787z"/>
	<path fill="#FFFFFF" d="M955.461,655.219c-34.806,26.893-78.694,50.103-130.44,68.989c-7.8,2.85-11.813,11.476-8.968,19.275
		c2.848,7.8,11.476,11.813,19.275,8.967c54.654-19.947,101.258-44.657,138.514-73.439c0.519-0.4,1.003-0.828,1.454-1.278
		c5.268-5.269,5.927-13.757,1.252-19.808C971.47,651.355,962.03,650.144,955.461,655.219z"/>
	<path fill="#FFFFFF" d="M40.11,393.641c8.643-8.643,18.328-17.129,28.792-25.223c0.514-0.398,0.996-0.824,1.444-1.271
		c5.271-5.271,5.927-13.764,1.246-19.817c-5.08-6.567-14.521-7.771-21.088-2.69c-11.464,8.871-22.112,18.203-31.65,27.741
		c-5.87,5.87-5.87,15.389,0,21.259S34.239,399.511,40.11,393.641z"/>
</g>
</svg>
