<?xml version="1.0" encoding="utf-8"?>
<!-- Generator: Adobe Illustrator 16.0.0, SVG Export Plug-In . SVG Version: 6.00 Build 0)  -->
<!DOCTYPE svg PUBLIC "-//W3C//DTD SVG 1.1//EN" "http://www.w3.org/Graphics/SVG/1.1/DTD/svg11.dtd">
<svg version="1.1" id="Capa_1" xmlns="http://www.w3.org/2000/svg" xmlns:xlink="http://www.w3.org/1999/xlink" x="0px" y="0px"
	 width="127.549px" height="257.34px" viewBox="0 0 127.549 257.34" enable-background="new 0 0 127.549 257.34"
	 xml:space="preserve">
<g>
	<g>
		<path fill="#222222" d="M106.331,214.615c0.043-0.079,0.092-0.139,0.139-0.213c1.035-1.569,1.094-3.608,0.141-5.233
			c-0.955-1.642-2.758-2.584-4.643-2.433c-15.533,1.138-29.479-0.041-38.393-1.221c-0.82-0.115-1.44-0.803-1.477-1.641
			c-0.023-0.822,0.563-1.551,1.362-1.715c23.984-4.734,44.646-14.047,56.017-19.875c1.23-0.633,2.143-1.74,2.514-3.068
			c4.311-15.373,5.816-29.633,6.297-38.498c0.084-1.561-0.574-3.066-1.779-4.076c-1.199-0.996-2.807-1.369-4.332-1.008
			c-22.527,5.404-47.396,3.971-60.021,2.664c-0.813-0.09-1.449-0.732-1.521-1.539c-0.08-0.807,0.438-1.557,1.219-1.777
			c14.778-4.264,46.174-13.919,62.516-23.481c1.66-0.973,2.609-2.824,2.432-4.738c-1.211-12.981-3.074-25.463-8.111-36.584
			c0-0.004,0-0.004,0-0.014c0-2.199-2.365-3.511-4.691-3.145c-20.445,3.238-39.479,1.738-50.77,0.244
			c-0.816-0.114-1.26-0.795-1.287-1.633c-0.025-0.826,0.639-1.553,1.455-1.717c15.504-3.062,29.667-8.045,40.807-12.763
			c1.615-0.687,2.883-2.032,3.438-3.708c0.559-1.67,0.377-3.496-0.504-5.017C89.741,12.473,69.409-0.894,48.65-0.894
			c-44.161,0-49.396,57.61-49.396,128.673S4.486,256.443,48.65,256.443C67.669,256.467,86.397,244.586,106.331,214.615z"/>
	</g>
</g>
</svg>
