<?xml version="1.0" encoding="utf-8"?>
<!-- Generator: Adobe Illustrator 16.0.0, SVG Export Plug-In . SVG Version: 6.00 Build 0)  -->
<!DOCTYPE svg PUBLIC "-//W3C//DTD SVG 1.1//EN" "http://www.w3.org/Graphics/SVG/1.1/DTD/svg11.dtd">
<svg version="1.1" id="Capa_1" xmlns="http://www.w3.org/2000/svg" xmlns:xlink="http://www.w3.org/1999/xlink" x="0px" y="0px"
	 width="357px" height="357px" viewBox="-114.726 -49.83 357 357" enable-background="new -114.726 -49.83 357 357"
	 xml:space="preserve">
<circle fill="#EDBC64" cx="63.774" cy="128.67" r="178.5"/>
<g>
	<g>
		<path fill="#222222" d="M106.016,213.972c0.042-0.079,0.091-0.138,0.138-0.212c1.027-1.558,1.086-3.581,0.139-5.193
			c-0.947-1.63-2.736-2.565-4.606-2.416c-15.419,1.13-29.26-0.04-38.109-1.211c-0.814-0.114-1.43-0.798-1.466-1.63
			c-0.022-0.816,0.559-1.538,1.352-1.701c23.807-4.699,44.315-13.944,55.603-19.729c1.219-0.628,2.127-1.727,2.494-3.045
			c4.278-15.26,5.773-29.413,6.25-38.213c0.084-1.549-0.569-3.043-1.766-4.045c-1.19-0.988-2.786-1.359-4.3-1.002
			c-22.36,5.365-47.044,3.943-59.576,2.645c-0.808-0.09-1.438-0.726-1.511-1.528c-0.079-0.8,0.436-1.544,1.21-1.762
			c14.669-4.234,45.832-13.817,62.052-23.308c1.649-0.966,2.591-2.803,2.415-4.703c-1.202-12.884-3.052-25.274-8.052-36.313
			c0-0.004,0-0.004,0-0.014c0-2.183-2.347-3.484-4.655-3.121c-20.293,3.214-39.187,1.724-50.394,0.242
			c-0.809-0.114-1.25-0.79-1.278-1.622c-0.024-0.819,0.635-1.541,1.445-1.704c15.388-3.039,29.448-7.985,40.505-12.668
			c1.602-0.682,2.86-2.017,3.412-3.68c0.555-1.658,0.374-3.47-0.5-4.98C89.549,13.328,69.368,0.06,48.762,0.06
			c-43.833,0-49.03,57.183-49.03,127.719c0,70.537,5.193,127.71,49.03,127.71C67.641,255.513,86.229,243.72,106.016,213.972z"/>
	</g>
</g>
</svg>
