<?xml version="1.0" encoding="utf-8"?>
<!-- Generator: Adobe Illustrator 16.0.0, SVG Export Plug-In . SVG Version: 6.00 Build 0)  -->
<!DOCTYPE svg PUBLIC "-//W3C//DTD SVG 1.1//EN" "http://www.w3.org/Graphics/SVG/1.1/DTD/svg11.dtd">
<svg version="1.1" id="Capa_1" xmlns="http://www.w3.org/2000/svg" xmlns:xlink="http://www.w3.org/1999/xlink" x="0px" y="0px"
	 width="127.549px" height="257.34px" viewBox="476.102 -0.893 127.549 257.34"
	 enable-background="new 476.102 -0.893 127.549 257.34" xml:space="preserve">
<g>
	<g>
		<path fill="#222222" d="M583.182,214.615c0.043-0.079,0.092-0.138,0.139-0.212c1.035-1.57,1.094-3.609,0.141-5.234
			c-0.955-1.641-2.758-2.584-4.643-2.432c-15.533,1.137-29.479-0.042-38.393-1.221c-0.82-0.116-1.441-0.803-1.477-1.641
			c-0.023-0.822,0.563-1.551,1.363-1.715c23.984-4.734,44.646-14.047,56.016-19.875c1.232-0.632,2.143-1.74,2.514-3.068
			c4.311-15.373,5.816-29.633,6.297-38.498c0.084-1.561-0.574-3.067-1.779-4.076c-1.199-0.997-2.807-1.369-4.332-1.008
			c-22.527,5.404-47.396,3.971-60.021,2.664c-0.814-0.09-1.449-0.732-1.521-1.539c-0.08-0.807,0.439-1.557,1.219-1.778
			c14.777-4.263,46.174-13.919,62.516-23.481c1.66-0.973,2.609-2.824,2.432-4.738c-1.211-12.981-3.074-25.463-8.111-36.584
			c0-0.004,0-0.004,0-0.014c0-2.199-2.365-3.511-4.691-3.145c-20.447,3.238-39.479,1.738-50.771,0.244
			c-0.816-0.114-1.26-0.795-1.287-1.633c-0.025-0.826,0.639-1.553,1.455-1.717c15.504-3.062,29.666-8.045,40.807-12.763
			c1.615-0.687,2.883-2.032,3.438-3.708c0.559-1.67,0.377-3.496-0.504-5.017c-17.396-29.953-37.729-43.32-58.488-43.32
			c-44.161,0-49.395,57.61-49.395,128.673s5.231,128.665,49.395,128.665C544.52,256.467,563.249,244.586,583.182,214.615z"/>
	</g>
</g>
</svg>
